<mxfile host="app.diagrams.net" agent="Mozilla/5.0 (Macintosh; Intel Mac OS X 10_15_7) AppleWebKit/537.36 (KHTML, like Gecko) Chrome/137.0.0.0 Safari/537.36" version="27.1.6">
  <diagram name="Page-1" id="AttyKVSFYQryVe4-kl-1">
    <mxGraphModel dx="2646" dy="1192" grid="1" gridSize="10" guides="0" tooltips="1" connect="1" arrows="1" fold="1" page="1" pageScale="1" pageWidth="850" pageHeight="1100" math="0" shadow="0">
      <root>
        <mxCell id="0" />
        <mxCell id="1" parent="0" />
        <mxCell id="ozj7rmMxrdjxO9l_UFkY-2" value="aw1-build" style="points=[[0,0],[0.25,0],[0.5,0],[0.75,0],[1,0],[1,0.25],[1,0.5],[1,0.75],[1,1],[0.75,1],[0.5,1],[0.25,1],[0,1],[0,0.75],[0,0.5],[0,0.25]];outlineConnect=0;gradientColor=none;html=1;whiteSpace=wrap;fontSize=12;fontStyle=0;container=1;pointerEvents=0;collapsible=0;recursiveResize=0;shape=mxgraph.aws4.group;grIcon=mxgraph.aws4.group_account;strokeColor=#CD2264;fillColor=none;verticalAlign=top;align=left;spacingLeft=30;fontColor=#CD2264;dashed=0;" vertex="1" parent="1">
          <mxGeometry x="130" y="230" width="680" height="200" as="geometry" />
        </mxCell>
        <mxCell id="ozj7rmMxrdjxO9l_UFkY-1" value="aw1-build Secrets Manager" style="sketch=0;points=[[0,0,0],[0.25,0,0],[0.5,0,0],[0.75,0,0],[1,0,0],[0,1,0],[0.25,1,0],[0.5,1,0],[0.75,1,0],[1,1,0],[0,0.25,0],[0,0.5,0],[0,0.75,0],[1,0.25,0],[1,0.5,0],[1,0.75,0]];outlineConnect=0;fontColor=#232F3E;fillColor=#DD344C;strokeColor=#ffffff;dashed=0;verticalLabelPosition=bottom;verticalAlign=top;align=center;html=1;fontSize=12;fontStyle=0;aspect=fixed;shape=mxgraph.aws4.resourceIcon;resIcon=mxgraph.aws4.secrets_manager;" vertex="1" parent="ozj7rmMxrdjxO9l_UFkY-2">
          <mxGeometry x="40" y="51" width="78" height="78" as="geometry" />
        </mxCell>
        <mxCell id="ozj7rmMxrdjxO9l_UFkY-12" value="EKS clusters" style="points=[[0,0],[0.25,0],[0.5,0],[0.75,0],[1,0],[1,0.25],[1,0.5],[1,0.75],[1,1],[0.75,1],[0.5,1],[0.25,1],[0,1],[0,0.75],[0,0.5],[0,0.25]];outlineConnect=0;gradientColor=none;html=1;whiteSpace=wrap;fontSize=12;fontStyle=0;container=1;pointerEvents=0;collapsible=0;recursiveResize=0;shape=mxgraph.aws4.group;grIcon=mxgraph.aws4.group_ec2_instance_contents;strokeColor=#D86613;fillColor=none;verticalAlign=top;align=left;spacingLeft=30;fontColor=#D86613;dashed=0;" vertex="1" parent="ozj7rmMxrdjxO9l_UFkY-2">
          <mxGeometry x="190" y="10" width="480" height="180" as="geometry" />
        </mxCell>
        <mxCell id="ozj7rmMxrdjxO9l_UFkY-8" value="ExternalSecret" style="aspect=fixed;sketch=0;html=1;dashed=0;whitespace=wrap;verticalLabelPosition=bottom;verticalAlign=top;fillColor=#2875E2;strokeColor=#ffffff;points=[[0.005,0.63,0],[0.1,0.2,0],[0.9,0.2,0],[0.5,0,0],[0.995,0.63,0],[0.72,0.99,0],[0.5,1,0],[0.28,0.99,0]];shape=mxgraph.kubernetes.icon2;prIcon=crd" vertex="1" parent="ozj7rmMxrdjxO9l_UFkY-12">
          <mxGeometry x="210" y="40" width="83.33" height="80" as="geometry" />
        </mxCell>
        <mxCell id="ozj7rmMxrdjxO9l_UFkY-6" value="Secret" style="aspect=fixed;sketch=0;html=1;dashed=0;whitespace=wrap;verticalLabelPosition=bottom;verticalAlign=top;fillColor=#2875E2;strokeColor=#ffffff;points=[[0.005,0.63,0],[0.1,0.2,0],[0.9,0.2,0],[0.5,0,0],[0.995,0.63,0],[0.72,0.99,0],[0.5,1,0],[0.28,0.99,0]];shape=mxgraph.kubernetes.icon2;prIcon=secret" vertex="1" parent="ozj7rmMxrdjxO9l_UFkY-12">
          <mxGeometry x="360" y="40" width="83.33" height="80" as="geometry" />
        </mxCell>
        <mxCell id="ozj7rmMxrdjxO9l_UFkY-25" style="edgeStyle=orthogonalEdgeStyle;rounded=0;orthogonalLoop=1;jettySize=auto;html=1;entryX=0.034;entryY=0.494;entryDx=0;entryDy=0;entryPerimeter=0;" edge="1" parent="ozj7rmMxrdjxO9l_UFkY-12" source="ozj7rmMxrdjxO9l_UFkY-8" target="ozj7rmMxrdjxO9l_UFkY-6">
          <mxGeometry relative="1" as="geometry" />
        </mxCell>
        <mxCell id="ozj7rmMxrdjxO9l_UFkY-26" value="Create" style="edgeLabel;html=1;align=center;verticalAlign=middle;resizable=0;points=[];" vertex="1" connectable="0" parent="ozj7rmMxrdjxO9l_UFkY-25">
          <mxGeometry x="-0.3285" y="-1" relative="1" as="geometry">
            <mxPoint x="10" y="-1" as="offset" />
          </mxGeometry>
        </mxCell>
        <mxCell id="ozj7rmMxrdjxO9l_UFkY-7" value="ClusterSecretStore" style="aspect=fixed;sketch=0;html=1;dashed=0;whitespace=wrap;verticalLabelPosition=bottom;verticalAlign=top;fillColor=#2875E2;strokeColor=#ffffff;points=[[0.005,0.63,0],[0.1,0.2,0],[0.9,0.2,0],[0.5,0,0],[0.995,0.63,0],[0.72,0.99,0],[0.5,1,0],[0.28,0.99,0]];shape=mxgraph.kubernetes.icon2;prIcon=crd" vertex="1" parent="ozj7rmMxrdjxO9l_UFkY-2">
          <mxGeometry x="210" y="50" width="83.34" height="80" as="geometry" />
        </mxCell>
        <mxCell id="ozj7rmMxrdjxO9l_UFkY-16" style="edgeStyle=orthogonalEdgeStyle;rounded=0;orthogonalLoop=1;jettySize=auto;html=1;" edge="1" parent="ozj7rmMxrdjxO9l_UFkY-2" source="ozj7rmMxrdjxO9l_UFkY-8" target="ozj7rmMxrdjxO9l_UFkY-7">
          <mxGeometry relative="1" as="geometry" />
        </mxCell>
        <mxCell id="ozj7rmMxrdjxO9l_UFkY-18" value="secretStoreRef" style="edgeLabel;html=1;align=center;verticalAlign=middle;resizable=0;points=[];" vertex="1" connectable="0" parent="ozj7rmMxrdjxO9l_UFkY-16">
          <mxGeometry x="-0.1213" y="-1" relative="1" as="geometry">
            <mxPoint as="offset" />
          </mxGeometry>
        </mxCell>
        <mxCell id="ozj7rmMxrdjxO9l_UFkY-27" style="edgeStyle=orthogonalEdgeStyle;rounded=0;orthogonalLoop=1;jettySize=auto;html=1;entryX=1;entryY=0.5;entryDx=0;entryDy=0;entryPerimeter=0;" edge="1" parent="ozj7rmMxrdjxO9l_UFkY-2" source="ozj7rmMxrdjxO9l_UFkY-7" target="ozj7rmMxrdjxO9l_UFkY-1">
          <mxGeometry relative="1" as="geometry" />
        </mxCell>
        <mxCell id="ozj7rmMxrdjxO9l_UFkY-28" value="Read&lt;br&gt;(IRSA)" style="edgeLabel;html=1;align=center;verticalAlign=middle;resizable=0;points=[];" vertex="1" connectable="0" parent="ozj7rmMxrdjxO9l_UFkY-27">
          <mxGeometry x="0.0179" y="1" relative="1" as="geometry">
            <mxPoint as="offset" />
          </mxGeometry>
        </mxCell>
        <mxCell id="ozj7rmMxrdjxO9l_UFkY-29" value="aw1-main-app" style="points=[[0,0],[0.25,0],[0.5,0],[0.75,0],[1,0],[1,0.25],[1,0.5],[1,0.75],[1,1],[0.75,1],[0.5,1],[0.25,1],[0,1],[0,0.75],[0,0.5],[0,0.25]];outlineConnect=0;gradientColor=none;html=1;whiteSpace=wrap;fontSize=12;fontStyle=0;container=1;pointerEvents=0;collapsible=0;recursiveResize=0;shape=mxgraph.aws4.group;grIcon=mxgraph.aws4.group_account;strokeColor=#CD2264;fillColor=none;verticalAlign=top;align=left;spacingLeft=30;fontColor=#CD2264;dashed=0;" vertex="1" parent="1">
          <mxGeometry x="130" y="450" width="680" height="200" as="geometry" />
        </mxCell>
        <mxCell id="ozj7rmMxrdjxO9l_UFkY-30" value="aw1-build Secrets Manager" style="sketch=0;points=[[0,0,0],[0.25,0,0],[0.5,0,0],[0.75,0,0],[1,0,0],[0,1,0],[0.25,1,0],[0.5,1,0],[0.75,1,0],[1,1,0],[0,0.25,0],[0,0.5,0],[0,0.75,0],[1,0.25,0],[1,0.5,0],[1,0.75,0]];outlineConnect=0;fontColor=#232F3E;fillColor=#DD344C;strokeColor=#ffffff;dashed=0;verticalLabelPosition=bottom;verticalAlign=top;align=center;html=1;fontSize=12;fontStyle=0;aspect=fixed;shape=mxgraph.aws4.resourceIcon;resIcon=mxgraph.aws4.secrets_manager;" vertex="1" parent="ozj7rmMxrdjxO9l_UFkY-29">
          <mxGeometry x="40" y="51" width="78" height="78" as="geometry" />
        </mxCell>
        <mxCell id="ozj7rmMxrdjxO9l_UFkY-31" value="EKS clusters" style="points=[[0,0],[0.25,0],[0.5,0],[0.75,0],[1,0],[1,0.25],[1,0.5],[1,0.75],[1,1],[0.75,1],[0.5,1],[0.25,1],[0,1],[0,0.75],[0,0.5],[0,0.25]];outlineConnect=0;gradientColor=none;html=1;whiteSpace=wrap;fontSize=12;fontStyle=0;container=1;pointerEvents=0;collapsible=0;recursiveResize=0;shape=mxgraph.aws4.group;grIcon=mxgraph.aws4.group_ec2_instance_contents;strokeColor=#D86613;fillColor=none;verticalAlign=top;align=left;spacingLeft=30;fontColor=#D86613;dashed=0;" vertex="1" parent="ozj7rmMxrdjxO9l_UFkY-29">
          <mxGeometry x="190" y="10" width="480" height="180" as="geometry" />
        </mxCell>
        <mxCell id="ozj7rmMxrdjxO9l_UFkY-32" value="ExternalSecret" style="aspect=fixed;sketch=0;html=1;dashed=0;whitespace=wrap;verticalLabelPosition=bottom;verticalAlign=top;fillColor=#2875E2;strokeColor=#ffffff;points=[[0.005,0.63,0],[0.1,0.2,0],[0.9,0.2,0],[0.5,0,0],[0.995,0.63,0],[0.72,0.99,0],[0.5,1,0],[0.28,0.99,0]];shape=mxgraph.kubernetes.icon2;prIcon=crd" vertex="1" parent="ozj7rmMxrdjxO9l_UFkY-31">
          <mxGeometry x="210" y="40" width="83.33" height="80" as="geometry" />
        </mxCell>
        <mxCell id="ozj7rmMxrdjxO9l_UFkY-33" value="Secret" style="aspect=fixed;sketch=0;html=1;dashed=0;whitespace=wrap;verticalLabelPosition=bottom;verticalAlign=top;fillColor=#2875E2;strokeColor=#ffffff;points=[[0.005,0.63,0],[0.1,0.2,0],[0.9,0.2,0],[0.5,0,0],[0.995,0.63,0],[0.72,0.99,0],[0.5,1,0],[0.28,0.99,0]];shape=mxgraph.kubernetes.icon2;prIcon=secret" vertex="1" parent="ozj7rmMxrdjxO9l_UFkY-31">
          <mxGeometry x="360" y="40" width="83.33" height="80" as="geometry" />
        </mxCell>
        <mxCell id="ozj7rmMxrdjxO9l_UFkY-34" style="edgeStyle=orthogonalEdgeStyle;rounded=0;orthogonalLoop=1;jettySize=auto;html=1;entryX=0.034;entryY=0.494;entryDx=0;entryDy=0;entryPerimeter=0;" edge="1" parent="ozj7rmMxrdjxO9l_UFkY-31" source="ozj7rmMxrdjxO9l_UFkY-32" target="ozj7rmMxrdjxO9l_UFkY-33">
          <mxGeometry relative="1" as="geometry" />
        </mxCell>
        <mxCell id="ozj7rmMxrdjxO9l_UFkY-35" value="Create" style="edgeLabel;html=1;align=center;verticalAlign=middle;resizable=0;points=[];" vertex="1" connectable="0" parent="ozj7rmMxrdjxO9l_UFkY-34">
          <mxGeometry x="-0.3285" y="-1" relative="1" as="geometry">
            <mxPoint x="10" y="-1" as="offset" />
          </mxGeometry>
        </mxCell>
        <mxCell id="ozj7rmMxrdjxO9l_UFkY-36" value="ClusterSecretStore" style="aspect=fixed;sketch=0;html=1;dashed=0;whitespace=wrap;verticalLabelPosition=bottom;verticalAlign=top;fillColor=#2875E2;strokeColor=#ffffff;points=[[0.005,0.63,0],[0.1,0.2,0],[0.9,0.2,0],[0.5,0,0],[0.995,0.63,0],[0.72,0.99,0],[0.5,1,0],[0.28,0.99,0]];shape=mxgraph.kubernetes.icon2;prIcon=crd" vertex="1" parent="ozj7rmMxrdjxO9l_UFkY-29">
          <mxGeometry x="210" y="50" width="83.34" height="80" as="geometry" />
        </mxCell>
        <mxCell id="ozj7rmMxrdjxO9l_UFkY-37" style="edgeStyle=orthogonalEdgeStyle;rounded=0;orthogonalLoop=1;jettySize=auto;html=1;" edge="1" parent="ozj7rmMxrdjxO9l_UFkY-29" source="ozj7rmMxrdjxO9l_UFkY-32" target="ozj7rmMxrdjxO9l_UFkY-36">
          <mxGeometry relative="1" as="geometry" />
        </mxCell>
        <mxCell id="ozj7rmMxrdjxO9l_UFkY-38" value="secretStoreRef" style="edgeLabel;html=1;align=center;verticalAlign=middle;resizable=0;points=[];" vertex="1" connectable="0" parent="ozj7rmMxrdjxO9l_UFkY-37">
          <mxGeometry x="-0.1213" y="-1" relative="1" as="geometry">
            <mxPoint as="offset" />
          </mxGeometry>
        </mxCell>
        <mxCell id="ozj7rmMxrdjxO9l_UFkY-39" style="edgeStyle=orthogonalEdgeStyle;rounded=0;orthogonalLoop=1;jettySize=auto;html=1;entryX=1;entryY=0.5;entryDx=0;entryDy=0;entryPerimeter=0;" edge="1" parent="ozj7rmMxrdjxO9l_UFkY-29" source="ozj7rmMxrdjxO9l_UFkY-36" target="ozj7rmMxrdjxO9l_UFkY-30">
          <mxGeometry relative="1" as="geometry" />
        </mxCell>
        <mxCell id="ozj7rmMxrdjxO9l_UFkY-40" value="Read&lt;div&gt;(IRSA)&lt;/div&gt;" style="edgeLabel;html=1;align=center;verticalAlign=middle;resizable=0;points=[];" vertex="1" connectable="0" parent="ozj7rmMxrdjxO9l_UFkY-39">
          <mxGeometry x="0.0179" y="1" relative="1" as="geometry">
            <mxPoint as="offset" />
          </mxGeometry>
        </mxCell>
        <mxCell id="ozj7rmMxrdjxO9l_UFkY-43" value="aws_secretsmanager_secret&#xa;(static SOPS, randomly generated, DB modules, etc.)" style="shape=image;verticalLabelPosition=bottom;labelBackgroundColor=default;verticalAlign=top;aspect=fixed;imageAspect=0;image=https://raw.githubusercontent.com/gilbarbara/logos/main/logos/terraform-icon.svg;" vertex="1" parent="1">
          <mxGeometry x="-160" y="380" width="87.97" height="100" as="geometry" />
        </mxCell>
        <mxCell id="ozj7rmMxrdjxO9l_UFkY-44" style="rounded=0;orthogonalLoop=1;jettySize=auto;html=1;entryX=0;entryY=0.5;entryDx=0;entryDy=0;entryPerimeter=0;" edge="1" parent="1" source="ozj7rmMxrdjxO9l_UFkY-43" target="ozj7rmMxrdjxO9l_UFkY-1">
          <mxGeometry relative="1" as="geometry" />
        </mxCell>
        <mxCell id="ozj7rmMxrdjxO9l_UFkY-46" value="Write" style="edgeLabel;html=1;align=center;verticalAlign=middle;resizable=0;points=[];" vertex="1" connectable="0" parent="ozj7rmMxrdjxO9l_UFkY-44">
          <mxGeometry x="-0.0626" y="-2" relative="1" as="geometry">
            <mxPoint x="-1" as="offset" />
          </mxGeometry>
        </mxCell>
        <mxCell id="ozj7rmMxrdjxO9l_UFkY-45" style="rounded=0;orthogonalLoop=1;jettySize=auto;html=1;entryX=0;entryY=0.5;entryDx=0;entryDy=0;entryPerimeter=0;" edge="1" parent="1" source="ozj7rmMxrdjxO9l_UFkY-43" target="ozj7rmMxrdjxO9l_UFkY-30">
          <mxGeometry relative="1" as="geometry" />
        </mxCell>
        <mxCell id="ozj7rmMxrdjxO9l_UFkY-47" value="Write" style="edgeLabel;html=1;align=center;verticalAlign=middle;resizable=0;points=[];" vertex="1" connectable="0" parent="ozj7rmMxrdjxO9l_UFkY-45">
          <mxGeometry x="-0.0455" y="1" relative="1" as="geometry">
            <mxPoint as="offset" />
          </mxGeometry>
        </mxCell>
        <mxCell id="ozj7rmMxrdjxO9l_UFkY-53" value="AzureKeyVaultSecret" style="aspect=fixed;sketch=0;html=1;dashed=0;whitespace=wrap;verticalLabelPosition=bottom;verticalAlign=top;fillColor=#2875E2;strokeColor=#ffffff;points=[[0.005,0.63,0],[0.1,0.2,0],[0.9,0.2,0],[0.5,0,0],[0.995,0.63,0],[0.72,0.99,0],[0.5,1,0],[0.28,0.99,0]];shape=mxgraph.kubernetes.icon2;prIcon=crd" vertex="1" parent="1">
          <mxGeometry x="10" y="920" width="83.33" height="80" as="geometry" />
        </mxCell>
        <mxCell id="ozj7rmMxrdjxO9l_UFkY-58" style="rounded=0;orthogonalLoop=1;jettySize=auto;html=1;" edge="1" parent="1" source="ozj7rmMxrdjxO9l_UFkY-54" target="ozj7rmMxrdjxO9l_UFkY-56">
          <mxGeometry relative="1" as="geometry" />
        </mxCell>
        <mxCell id="ozj7rmMxrdjxO9l_UFkY-54" value="AzureKeyVaultSecret" style="aspect=fixed;sketch=0;html=1;dashed=0;whitespace=wrap;verticalLabelPosition=bottom;verticalAlign=top;fillColor=#2875E2;strokeColor=#ffffff;points=[[0.005,0.63,0],[0.1,0.2,0],[0.9,0.2,0],[0.5,0,0],[0.995,0.63,0],[0.72,0.99,0],[0.5,1,0],[0.28,0.99,0]];shape=mxgraph.kubernetes.icon2;prIcon=crd" vertex="1" parent="1">
          <mxGeometry x="10" y="1070" width="83.33" height="80" as="geometry" />
        </mxCell>
        <mxCell id="ozj7rmMxrdjxO9l_UFkY-59" style="rounded=0;orthogonalLoop=1;jettySize=auto;html=1;" edge="1" parent="1" source="ozj7rmMxrdjxO9l_UFkY-55" target="ozj7rmMxrdjxO9l_UFkY-56">
          <mxGeometry relative="1" as="geometry" />
        </mxCell>
        <mxCell id="ozj7rmMxrdjxO9l_UFkY-55" value="AzureKeyVaultSecret" style="aspect=fixed;sketch=0;html=1;dashed=0;whitespace=wrap;verticalLabelPosition=bottom;verticalAlign=top;fillColor=#2875E2;strokeColor=#ffffff;points=[[0.005,0.63,0],[0.1,0.2,0],[0.9,0.2,0],[0.5,0,0],[0.995,0.63,0],[0.72,0.99,0],[0.5,1,0],[0.28,0.99,0]];shape=mxgraph.kubernetes.icon2;prIcon=crd" vertex="1" parent="1">
          <mxGeometry x="10" y="1220" width="83.33" height="80" as="geometry" />
        </mxCell>
        <mxCell id="ozj7rmMxrdjxO9l_UFkY-56" value="Secret" style="aspect=fixed;sketch=0;html=1;dashed=0;whitespace=wrap;verticalLabelPosition=bottom;verticalAlign=top;fillColor=#2875E2;strokeColor=#ffffff;points=[[0.005,0.63,0],[0.1,0.2,0],[0.9,0.2,0],[0.5,0,0],[0.995,0.63,0],[0.72,0.99,0],[0.5,1,0],[0.28,0.99,0]];shape=mxgraph.kubernetes.icon2;prIcon=secret" vertex="1" parent="1">
          <mxGeometry x="180" y="1070" width="83.33" height="80" as="geometry" />
        </mxCell>
        <mxCell id="ozj7rmMxrdjxO9l_UFkY-57" style="rounded=0;orthogonalLoop=1;jettySize=auto;html=1;entryX=0.1;entryY=0.2;entryDx=0;entryDy=0;entryPerimeter=0;" edge="1" parent="1" source="ozj7rmMxrdjxO9l_UFkY-53" target="ozj7rmMxrdjxO9l_UFkY-56">
          <mxGeometry relative="1" as="geometry" />
        </mxCell>
        <mxCell id="ozj7rmMxrdjxO9l_UFkY-62" value="&lt;pre&gt;data:&lt;br&gt;&amp;nbsp; &lt;font style=&quot;color: rgb(234, 107, 102);&quot;&gt;foo: abc&lt;/font&gt;&lt;br&gt;&lt;font style=&quot;color: rgb(103, 171, 159);&quot;&gt;&amp;nbsp; bar: xyz&lt;br&gt;&lt;/font&gt;&lt;font style=&quot;color: rgb(166, 128, 184);&quot;&gt;&amp;nbsp; baz: 123&lt;/font&gt;&lt;/pre&gt;" style="shape=note;whiteSpace=wrap;html=1;backgroundOutline=1;darkOpacity=0.05;align=left;" vertex="1" parent="1">
          <mxGeometry x="263.33" y="1060" width="80" height="100" as="geometry" />
        </mxCell>
        <mxCell id="ozj7rmMxrdjxO9l_UFkY-70" value="" style="image;sketch=0;aspect=fixed;html=1;points=[];align=center;fontSize=12;image=img/lib/mscae/Key_Vaults.svg;" vertex="1" parent="1">
          <mxGeometry x="-460" y="1070" width="79.2" height="82.5" as="geometry" />
        </mxCell>
        <mxCell id="ozj7rmMxrdjxO9l_UFkY-71" value="&lt;pre&gt;&lt;span style=&quot;color: light-dark(rgb(234, 107, 102), rgb(208, 99, 95)); background-color: transparent; font-family: Helvetica; white-space: normal;&quot;&gt;foo-on-vault: abc&lt;/span&gt;&lt;/pre&gt;&lt;pre&gt;&lt;font style=&quot;color: rgb(103, 171, 159);&quot;&gt;bar-on-vault: xyz&lt;/font&gt;&lt;/pre&gt;&lt;pre&gt;&lt;font style=&quot;color: rgb(166, 128, 184);&quot;&gt;baz-on-vault: 123&lt;/font&gt;&lt;/pre&gt;" style="shape=note;whiteSpace=wrap;html=1;backgroundOutline=1;darkOpacity=0.05;align=left;" vertex="1" parent="1">
          <mxGeometry x="-680" y="1050" width="206.01" height="120" as="geometry" />
        </mxCell>
        <mxCell id="ozj7rmMxrdjxO9l_UFkY-75" style="rounded=0;orthogonalLoop=1;jettySize=auto;html=1;" edge="1" parent="1" source="ozj7rmMxrdjxO9l_UFkY-53" target="ozj7rmMxrdjxO9l_UFkY-70">
          <mxGeometry relative="1" as="geometry" />
        </mxCell>
        <mxCell id="ozj7rmMxrdjxO9l_UFkY-76" style="rounded=0;orthogonalLoop=1;jettySize=auto;html=1;" edge="1" parent="1" source="ozj7rmMxrdjxO9l_UFkY-54" target="ozj7rmMxrdjxO9l_UFkY-70">
          <mxGeometry relative="1" as="geometry" />
        </mxCell>
        <mxCell id="ozj7rmMxrdjxO9l_UFkY-77" style="rounded=0;orthogonalLoop=1;jettySize=auto;html=1;" edge="1" parent="1" source="ozj7rmMxrdjxO9l_UFkY-55" target="ozj7rmMxrdjxO9l_UFkY-70">
          <mxGeometry relative="1" as="geometry" />
        </mxCell>
        <mxCell id="ozj7rmMxrdjxO9l_UFkY-67" value="&lt;pre&gt;vault.object:&lt;/pre&gt;&lt;pre&gt;  name: &lt;font style=&quot;color: rgb(234, 107, 102);&quot;&gt;foo-on-vault&lt;/font&gt;&lt;/pre&gt;&lt;pre&gt;output:&lt;/pre&gt;&lt;pre&gt;  dataKey: foo&lt;/pre&gt;" style="shape=note;whiteSpace=wrap;html=1;backgroundOutline=1;darkOpacity=0.05;align=left;" vertex="1" parent="1">
          <mxGeometry x="-216.01" y="910" width="200" height="120" as="geometry" />
        </mxCell>
        <mxCell id="ozj7rmMxrdjxO9l_UFkY-68" value="&lt;pre&gt;vault.object:&lt;/pre&gt;&lt;pre&gt;  name: &lt;font style=&quot;color: rgb(103, 171, 159);&quot;&gt;bar-on-vault&lt;/font&gt;&lt;/pre&gt;&lt;pre&gt;output:&lt;/pre&gt;&lt;pre&gt;  dataKey: bar&lt;/pre&gt;" style="shape=note;whiteSpace=wrap;html=1;backgroundOutline=1;darkOpacity=0.05;align=left;" vertex="1" parent="1">
          <mxGeometry x="-216.01" y="1060" width="200" height="120" as="geometry" />
        </mxCell>
        <mxCell id="ozj7rmMxrdjxO9l_UFkY-69" value="&lt;pre&gt;vault.object:&lt;/pre&gt;&lt;pre&gt;  name: &lt;font style=&quot;color: rgb(166, 128, 184);&quot;&gt;baz-on-vault&lt;/font&gt;&lt;/pre&gt;&lt;pre&gt;output:&lt;/pre&gt;&lt;pre&gt;  dataKey: baz&lt;/pre&gt;" style="shape=note;whiteSpace=wrap;html=1;backgroundOutline=1;darkOpacity=0.05;align=left;" vertex="1" parent="1">
          <mxGeometry x="-216.01" y="1210" width="200" height="120" as="geometry" />
        </mxCell>
        <mxCell id="ozj7rmMxrdjxO9l_UFkY-83" style="edgeStyle=orthogonalEdgeStyle;rounded=0;orthogonalLoop=1;jettySize=auto;html=1;" edge="1" parent="1" source="ozj7rmMxrdjxO9l_UFkY-84" target="ozj7rmMxrdjxO9l_UFkY-85">
          <mxGeometry relative="1" as="geometry" />
        </mxCell>
        <mxCell id="ozj7rmMxrdjxO9l_UFkY-84" value="ExternalSecret" style="aspect=fixed;sketch=0;html=1;dashed=0;whitespace=wrap;verticalLabelPosition=bottom;verticalAlign=top;fillColor=#2875E2;strokeColor=#ffffff;points=[[0.005,0.63,0],[0.1,0.2,0],[0.9,0.2,0],[0.5,0,0],[0.995,0.63,0],[0.72,0.99,0],[0.5,1,0],[0.28,0.99,0]];shape=mxgraph.kubernetes.icon2;prIcon=crd" vertex="1" parent="1">
          <mxGeometry x="10" y="1480" width="83.33" height="80" as="geometry" />
        </mxCell>
        <mxCell id="ozj7rmMxrdjxO9l_UFkY-85" value="Secret" style="aspect=fixed;sketch=0;html=1;dashed=0;whitespace=wrap;verticalLabelPosition=bottom;verticalAlign=top;fillColor=#2875E2;strokeColor=#ffffff;points=[[0.005,0.63,0],[0.1,0.2,0],[0.9,0.2,0],[0.5,0,0],[0.995,0.63,0],[0.72,0.99,0],[0.5,1,0],[0.28,0.99,0]];shape=mxgraph.kubernetes.icon2;prIcon=secret" vertex="1" parent="1">
          <mxGeometry x="180" y="1480" width="83.33" height="80" as="geometry" />
        </mxCell>
        <mxCell id="ozj7rmMxrdjxO9l_UFkY-93" value="&lt;pre&gt;data:&lt;br&gt;&lt;font style=&quot;color: rgb(234, 107, 102);&quot;&gt;&amp;nbsp; &lt;font style=&quot;color: rgb(255, 51, 51);&quot;&gt;foo: abc&lt;/font&gt;&lt;br&gt;&lt;/font&gt;&lt;font style=&quot;color: rgb(103, 171, 159);&quot;&gt;&amp;nbsp; bar: xyz&lt;br&gt;&lt;/font&gt;&lt;font style=&quot;color: rgb(166, 128, 184);&quot;&gt;&amp;nbsp; baz: 123&lt;/font&gt;&lt;/pre&gt;" style="shape=note;whiteSpace=wrap;html=1;backgroundOutline=1;darkOpacity=0.05;align=left;" vertex="1" parent="1">
          <mxGeometry x="263.3299999999999" y="1470" width="80" height="100" as="geometry" />
        </mxCell>
        <mxCell id="ozj7rmMxrdjxO9l_UFkY-95" value="" style="image;sketch=0;aspect=fixed;html=1;points=[];align=center;fontSize=12;image=img/lib/mscae/Key_Vaults.svg;" vertex="1" parent="1">
          <mxGeometry x="-440" y="1488.75" width="79.2" height="82.5" as="geometry" />
        </mxCell>
        <mxCell id="ozj7rmMxrdjxO9l_UFkY-96" value="&lt;pre&gt;&lt;span style=&quot;color: light-dark(rgb(234, 107, 102), rgb(208, 99, 95)); background-color: transparent; font-family: Helvetica; white-space: normal;&quot;&gt;foo-on-vault: abc&lt;/span&gt;&lt;/pre&gt;&lt;pre&gt;&lt;font style=&quot;color: rgb(103, 171, 159);&quot;&gt;bar-on-vault: xyz&lt;/font&gt;&lt;/pre&gt;&lt;pre&gt;&lt;font style=&quot;color: rgb(166, 128, 184);&quot;&gt;baz-on-vault: 123&lt;/font&gt;&lt;/pre&gt;" style="shape=note;whiteSpace=wrap;html=1;backgroundOutline=1;darkOpacity=0.05;align=left;" vertex="1" parent="1">
          <mxGeometry x="-660" y="1470" width="206.01" height="120" as="geometry" />
        </mxCell>
        <mxCell id="ozj7rmMxrdjxO9l_UFkY-97" style="rounded=0;orthogonalLoop=1;jettySize=auto;html=1;exitX=0.005;exitY=0.63;exitDx=0;exitDy=0;exitPerimeter=0;" edge="1" parent="1" source="ozj7rmMxrdjxO9l_UFkY-84" target="ozj7rmMxrdjxO9l_UFkY-95">
          <mxGeometry relative="1" as="geometry" />
        </mxCell>
        <mxCell id="ozj7rmMxrdjxO9l_UFkY-101" value="&lt;pre&gt;data:&lt;/pre&gt;&lt;pre&gt;  - remoteRef: &lt;font style=&quot;background-color: transparent; font-family: Helvetica; white-space: normal; color: rgb(234, 107, 102);&quot;&gt;foo-on-vault&lt;/font&gt;&lt;/pre&gt;&lt;pre&gt;    secretKey: foo&lt;/pre&gt;&lt;pre&gt;  - remoteRef: &lt;font style=&quot;background-color: transparent; font-family: Helvetica; white-space: normal; color: rgb(103, 171, 159);&quot;&gt;bar-on-vault&lt;/font&gt;&lt;/pre&gt;&lt;pre&gt;    secretKey: bar&lt;/pre&gt;&lt;pre&gt;  - remoteRef: &lt;font style=&quot;background-color: transparent; font-family: Helvetica; white-space: normal; color: rgb(166, 128, 184);&quot;&gt;baz-on-vault&lt;/font&gt;&lt;/pre&gt;&lt;pre&gt;    secretKey: baz&lt;/pre&gt;" style="shape=note;whiteSpace=wrap;html=1;backgroundOutline=1;darkOpacity=0.05;align=left;" vertex="1" parent="1">
          <mxGeometry x="-216.01" y="1420" width="206.01" height="200" as="geometry" />
        </mxCell>
      </root>
    </mxGraphModel>
  </diagram>
</mxfile>
